<?xml version="1.0" encoding="utf-8"?>
<!-- Svg Vector Icons : http://www.onlinewebfonts.com/icon -->
<!DOCTYPE svg PUBLIC "-//W3C//DTD SVG 1.1//EN" "http://www.w3.org/Graphics/SVG/1.1/DTD/svg11.dtd">
<svg version="1.1" xmlns="http://www.w3.org/2000/svg" xmlns:xlink="http://www.w3.org/1999/xlink" x="0px" y="0px" viewBox="0 0 1000 1000" enable-background="new 0 0 1000 1000" xml:space="preserve">
<metadata> Svg Vector Icons : http://www.onlinewebfonts.com/icon </metadata>
<g><path d="M619.5,899.5l350-350c27.4-27.3,27.4-71.7,0-99l-350-350c-27.4-27.4-71.7-27.4-99,0c-27.3,27.4-27.4,71.7,0,99L751,430H80c-38.6,0-70,31.4-70,70c0,38.6,31.4,70,70,70h671L520.5,800.5C506.9,814.2,500,832.1,500,850c0,17.9,6.9,35.8,20.5,49.5C547.9,926.9,592.2,926.9,619.5,899.5L619.5,899.5z"/></g>
</svg>